<svg height="512pt" viewBox="0 0 512 512" fill="#ffa700" width="512pt" xmlns="http://www.w3.org/2000/svg"><path d="m112.941406 304.871094c-7.292968 0-13.226562 5.933594-13.226562 13.222656 0 7.292969 5.933594 13.222656 13.226562 13.222656 7.289063 0 13.222656-5.929687 13.222656-13.222656 0-7.289062-5.933593-13.222656-13.222656-13.222656zm0 0"/><path d="m399.058594 214.816406c7.292968 0 13.226562-5.929687 13.226562-13.222656 0-7.289062-5.933594-13.222656-13.226562-13.222656-7.289063 0-13.222656 5.933594-13.222656 13.222656 0 7.292969 5.933593 13.222656 13.222656 13.222656zm0 0"/><path d="m384.953125 293.175781c-7.289063 0-13.222656 5.933594-13.222656 13.222657 0 7.292968 5.933593 13.222656 13.222656 13.222656 7.292969 0 13.226563-5.929688 13.226563-13.222656 0-7.292969-5.933594-13.222657-13.226563-13.222657zm0 0"/><path d="m190.167969 382.019531c-7.289063 0-13.222657 5.929688-13.222657 13.222657 0 7.289062 5.933594 13.222656 13.222657 13.222656 7.292969 0 13.222656-5.933594 13.222656-13.222656 0-7.292969-5.929687-13.222657-13.222656-13.222657zm0 0"/><path d="m333.390625 82.003906c-7.292969 0-13.226563 5.929688-13.226563 13.222656 0 7.289063 5.933594 13.222657 13.226563 13.222657 7.289063 0 13.222656-5.933594 13.222656-13.222657-.003906-7.292968-5.933593-13.222656-13.222656-13.222656zm0 0"/><path d="m127.046875 218.824219c7.289063 0 13.222656-5.933594 13.222656-13.222657 0-7.292968-5.933593-13.222656-13.222656-13.222656-7.292969 0-13.226563 5.929688-13.226563 13.222656 0 7.289063 5.933594 13.222657 13.226563 13.222657zm0 0"/><path d="m384.953125 349.621094c-14.640625 0-27.597656-7.324219-35.421875-18.5-4.90625-7.011719-7.796875-15.53125-7.796875-24.722656 0-15.511719 8.21875-29.136719 20.527344-36.765626 6.597656-4.089843 14.375-6.457031 22.691406-6.457031 18.5625 0 34.425781 11.761719 40.535156 28.222657h84.082031c1.597657-11.632813 2.429688-23.453126 2.429688-35.398438 0-68.378906-26.628906-132.667969-74.980469-181.019531-48.351562-48.351563-112.640625-74.980469-181.019531-74.980469-12.253906 0-24.371094.871094-36.289062 2.550781v315.542969c0 8.285156-6.71875 15-15 15h-51.234376c-6.113281 16.460938-21.976562 28.222656-40.535156 28.222656-23.835937 0-43.226562-19.390625-43.226562-43.222656s19.390625-43.222656 43.226562-43.222656c11.078125 0 21.195313 4.195312 28.855469 11.078125 5.167969 4.644531 9.214844 10.511719 11.679687 17.144531h36.234376v-294.457031c-9.695313 2.582031-19.207032 5.730469-28.496094 9.429687v91.871094c0 8.28125-6.71875 15-15 15-8.285156 0-15-6.71875-15-15v-77.582031c-6.378906 3.574219-18.199219 11.1875-18.199219 11.1875v86.394531c0 8.285156-6.714844 15-15 15-8.28125 0-15-6.714844-15-15v-62.640625c-3.820313 3.398437-4.386719 4.035156-8.035156 7.683594-32.527344 32.527343-55.207031 72.273437-66.578125 115.621093h78.109375c6.109375-16.460937 21.972656-28.222656 40.535156-28.222656 15.386719 0 28.914063 8.085938 36.574219 20.230469 4.203125 6.664063 6.648437 14.542969 6.648437 22.988281 0 14.894532-7.574219 28.054688-19.070312 35.832032-6.898438 4.664062-15.214844 7.394531-24.152344 7.394531-18.5625 0-34.425781-11.761719-40.535156-28.222657h-84.082031c-1.597657 11.632813-2.429688 23.453126-2.429688 35.398438 0 68.378906 26.628906 132.667969 74.980469 181.019531 48.351562 48.351563 112.640625 74.980469 181.019531 74.980469 11.0625 0 22.015625-.707031 32.816406-2.082031v-311.460938c0-8.28125 6.714844-15 15-15h56.023438c6.871094-14.796875 21.859375-25.085937 39.21875-25.085937 23.835937 0 43.222656 19.390625 43.222656 43.226562 0 23.832032-19.386719 43.222656-43.222656 43.222656-11.292969 0-21.582032-4.359374-29.289063-11.472656-5.75-5.3125-10.054687-12.160156-12.265625-19.886718h-38.691406v290.816406c10.902344-2.734375 21.574219-6.203125 31.972656-10.339844v-103.128906c0-8.28125 6.71875-15 15-15 8.285156 0 15 6.71875 15 15v88.835937c8.734375-4.890625 18.195313-11.21875 18.195313-11.21875v-97.617187c0-8.285156 6.71875-15 15-15 8.285156 0 15 6.714844 15 15v73.890625c3.835937-3.40625 4.378906-4.019531 8.039062-7.679688 32.527344-32.527343 55.203125-72.273437 66.578125-115.621093h-78.109375c-6.109375 16.460937-21.972656 28.222656-40.535156 28.222656zm-51.5625-211.171875c-6.664063 0-12.980469-1.519531-18.621094-4.222657-.976562-.46875-1.925781-.980468-2.859375-1.519531l-42.648437 35.621094v192.289063c0 5.511718-3.019531 10.578124-7.871094 13.195312l-28.433594 15.363281c.28125 1.980469.433594 4.003907.433594 6.066407 0 23.832031-19.386719 43.222656-43.222656 43.222656-23.832031 0-43.222657-19.390625-43.222657-43.222656 0-23.835938 19.390626-43.222657 43.222657-43.222657 6.664062 0 12.976562 1.515625 18.617187 4.21875 3.601563 1.726563 6.921875 3.945313 9.890625 6.554688l20.585938-11.121094v-190.359375c0-4.445312 1.972656-8.664062 5.382812-11.511719l48.019531-40.105469c-1.613281-4.527343-2.5-9.398437-2.5-14.46875 0-23.835937 19.390626-43.222656 43.226563-43.222656 23.832031 0 43.222656 19.386719 43.222656 43.222656-.003906 23.832032-19.390625 43.222657-43.222656 43.222657zm0 0"/><path d="m503.601562 321.390625c2.574219-9.824219 4.570313-19.832031 5.96875-29.984375-1.398437 10.152344-3.394531 20.160156-5.96875 29.984375zm0 0"/><path d="m2.433594 220.59375c1.394531-10.152344 3.390625-20.160156 5.96875-29.988281-2.578125 9.828125-4.574219 19.835937-5.96875 29.988281zm0 0"/></svg>
